<?xml version="1.0" standalone="no"?>
<!DOCTYPE svg PUBLIC "-//W3C//DTD SVG 20010904//EN"
 "http://www.w3.org/TR/2001/REC-SVG-20010904/DTD/svg10.dtd">
<svg version="1.0" xmlns="http://www.w3.org/2000/svg"
 width="75.000000pt" height="75.000000pt" viewBox="0 0 75.000000 75.000000"
 preserveAspectRatio="xMidYMid meet">

<g transform="translate(0.000000,75.000000) scale(0.100000,-0.100000)"
fill="#000000" stroke="none">
<path d="M182 686 c-33 -24 -61 -55 -62 -68 0 -6 68 -73 163 -158 37 -34 51
-41 66 -34 17 8 15 18 -39 144 -64 149 -73 157 -128 116z m44 -21 c-11 -8 -22
-12 -25 -9 -6 6 19 24 34 24 6 -1 1 -7 -9 -15z m-36 -24 c0 -5 -7 -12 -16 -15
-14 -5 -15 -4 -4 9 14 17 20 19 20 6z m53 -54 l18 -32 -25 27 c-27 28 -32 38
-18 38 4 0 15 -15 25 -33z"/>
<path d="M460 605 l-43 -104 -39 30 c-43 34 -45 32 -22 -34 16 -47 27 -58 38
-34 3 6 4 3 1 -9 -3 -12 0 -26 8 -32 19 -16 222 167 222 200 0 25 -75 88 -104
88 -12 0 -29 -29 -61 -105z m90 53 c0 -6 -6 -5 -15 2 -8 7 -15 14 -15 16 0 2
7 1 15 -2 8 -4 15 -11 15 -16z m40 -29 c0 -6 -4 -7 -10 -4 -5 3 -10 11 -10 16
0 6 5 7 10 4 6 -3 10 -11 10 -16z m-50 -17 c0 -5 -9 -17 -20 -27 -19 -17 -19
-17 -7 9 12 25 27 35 27 18z"/>
<path d="M475 447 c-74 -71 -68 -78 98 -115 166 -36 167 -36 167 60 0 44 -4
60 -16 65 -8 3 -52 -2 -97 -12 -128 -26 -133 -27 -121 -18 11 8 28 63 19 63
-2 0 -25 -19 -50 -43z m232 -39 c-3 -8 -6 -5 -6 6 -1 11 2 17 5 13 3 -3 4 -12
1 -19z m-224 5 c-7 -2 -19 -2 -25 0 -7 3 -2 5 12 5 14 0 19 -2 13 -5z m175
-30 c-10 -2 -28 -2 -40 0 -13 2 -5 4 17 4 22 1 32 -1 23 -4z m49 -25 c-3 -8
-6 -5 -6 6 -1 11 2 17 5 13 3 -3 4 -12 1 -19z"/>
<path d="M14 434 c-8 -33 3 -116 17 -125 6 -3 48 2 92 12 45 10 108 24 140 30
52 11 57 14 57 39 0 15 -10 36 -24 49 -19 18 -30 21 -60 16 -20 -4 -33 -11
-30 -16 7 -12 2 -11 -76 6 -94 21 -108 19 -116 -11z m33 -36 c-3 -7 -5 -2 -5
12 0 14 2 19 5 13 2 -7 2 -19 0 -25z m200 26 c-3 -3 -12 -4 -19 -1 -8 3 -5 6
6 6 11 1 17 -2 13 -5z m50 -10 c-3 -3 -12 -4 -19 -1 -8 3 -5 6 6 6 11 1 17 -2
13 -5z m-137 -30 c0 -2 -18 -4 -41 -4 -22 0 -38 4 -35 8 5 8 76 4 76 -4z
m-100 -32 c0 -15 -2 -15 -10 -2 -13 20 -13 33 0 25 6 -3 10 -14 10 -23z"/>
<path d="M344 399 c-19 -22 -13 -43 19 -63 12 -8 21 -5 36 8 26 23 26 38 3 59
-24 22 -35 21 -58 -4z m54 -22 c4 -20 -25 -34 -40 -19 -15 15 -1 44 19 40 10
-2 19 -11 21 -21z"/>
<path d="M365 379 c-10 -15 3 -25 16 -12 7 7 7 13 1 17 -6 3 -14 1 -17 -5z"/>
<path d="M413 335 l-22 -15 62 -135 c50 -111 64 -135 81 -135 27 0 92 44 106
71 10 18 5 26 -37 62 -26 23 -65 58 -86 77 l-39 35 27 3 c51 4 47 15 -11 33
-32 10 -59 19 -59 19 0 0 -10 -7 -22 -15z m42 -15 c10 -11 16 -20 13 -20 -3 0
-13 9 -23 20 -10 11 -16 20 -13 20 3 0 13 -9 23 -20z m85 -155 c13 -14 19 -25
13 -25 -6 0 -18 11 -27 25 -9 14 -15 25 -13 25 2 0 14 -11 27 -25z m65 -44
c-3 -6 -11 -11 -17 -11 -6 0 -6 6 2 15 14 17 26 13 15 -4z m-35 -25 c0 -2 -9
-6 -20 -9 -11 -3 -18 -1 -14 4 5 9 34 13 34 5z"/>
<path d="M258 333 c-17 -4 -36 -48 -26 -58 3 -3 22 11 44 30 39 34 34 42 -18
28z"/>
<path d="M218 243 c-60 -52 -108 -101 -108 -108 0 -31 108 -100 127 -82 6 6
97 202 114 244 6 17 4 25 -9 32 -13 7 -39 -11 -124 -86z m12 -74 c-12 -16 -25
-28 -28 -25 -5 6 36 56 45 56 3 0 -5 -14 -17 -31z m-60 -51 c0 -6 -6 -5 -15 2
-8 7 -15 14 -15 16 0 2 7 1 15 -2 8 -4 15 -11 15 -16z m35 -18 c3 -5 1 -10 -4
-10 -6 0 -11 5 -11 10 0 6 2 10 4 10 3 0 8 -4 11 -10z"/>
<path d="M367 303 c-22 -35 -57 -153 -56 -187 l1 -41 7 37 c10 46 27 68 56 68
29 0 46 -22 56 -68 l7 -37 1 40 c0 22 -11 71 -25 110 -29 75 -39 92 -47 78z
m21 -86 c2 -10 -3 -17 -12 -17 -10 0 -16 9 -16 21 0 24 23 21 28 -4z"/>
<path d="M346 154 c-17 -17 -22 -79 -7 -89 6 -3 11 14 13 37 2 35 7 43 23 43
16 0 21 -9 26 -45 4 -33 7 -40 13 -27 12 25 -2 84 -20 91 -23 9 -31 7 -48 -10z"/>
</g>
</svg>
