<?xml version="1.0" standalone="no"?>
<!DOCTYPE svg PUBLIC "-//W3C//DTD SVG 20010904//EN"
 "http://www.w3.org/TR/2001/REC-SVG-20010904/DTD/svg10.dtd">
<svg version="1.0" xmlns="http://www.w3.org/2000/svg"
 width="73.000000pt" height="102.000000pt" viewBox="0 0 73.000000 102.000000"
 preserveAspectRatio="xMidYMid meet">
<metadata>
Created by potrace 1.10, written by Peter Selinger 2001-2011
</metadata>
<g transform="translate(0.000000,102.000000) scale(0.050000,-0.050000)"
fill="#c4b1e5" stroke="none">
<path d="M111 2021 c-34 -55 -21 -198 25 -259 68 -92 18 -75 -66 23 l-73 85 9
-84 c13 -110 80 -201 182 -247 45 -20 66 -37 47 -38 -49 -2 -44 -25 25 -135
56 -88 72 -132 109 -294 21 -94 59 -28 61 106 1 101 9 125 51 160 46 38 46 41
8 41 -64 1 -129 58 -129 113 0 59 50 84 103 51 130 -82 -36 161 -178 260 -25
17 -71 78 -103 136 -34 62 -63 96 -71 82z"/>
<path d="M1373 1748 c-41 -28 -171 -87 -289 -131 -410 -154 -522 -224 -586
-366 -56 -123 -46 -134 59 -63 66 45 149 76 265 100 427 89 555 174 617 409
30 110 25 113 -66 51z"/>
<path d="M1320 1415 c-27 -22 -104 -66 -170 -96 -66 -30 -138 -75 -160 -99
-22 -25 -85 -71 -140 -104 l-100 -59 176 12 c271 18 379 92 436 298 26 95 21
100 -42 48z"/>
<path d="M810 1242 c-265 -66 -510 -284 -510 -453 l0 -53 56 59 c64 70 154 95
231 66 71 -27 86 -73 41 -124 -69 -75 148 -199 293 -167 l57 13 -89 85 c-113
108 -111 122 11 124 131 3 233 71 307 205 30 57 51 103 46 103 -5 0 -48 -18
-96 -40 -63 -28 -131 -39 -247 -40 -88 0 -207 -13 -265 -28 -149 -40 -130 -16
70 92 97 51 197 116 224 145 56 59 55 59 -129 13z"/>
<path d="M431 821 c-27 -44 172 -762 223 -804 53 -44 23 170 -74 518 -80 285
-112 347 -149 286z"/>
</g>
</svg>
