<?xml version="1.0" encoding="UTF-8" standalone="no"?>
<svg
   xmlns:dc="http://purl.org/dc/elements/1.1/"
   xmlns:cc="http://creativecommons.org/ns#"
   xmlns:rdf="http://www.w3.org/1999/02/22-rdf-syntax-ns#"
   xmlns:svg="http://www.w3.org/2000/svg"
   xmlns="http://www.w3.org/2000/svg"
   xmlns:sodipodi="http://sodipodi.sourceforge.net/DTD/sodipodi-0.dtd"
   xmlns:inkscape="http://www.inkscape.org/namespaces/inkscape"
   version="1.0"
   width="73.000000pt"
   height="102.000000pt"
   viewBox="0 0 73.000000 102.000000"
   preserveAspectRatio="xMidYMid meet"
   id="svg16"
   sodipodi:docname="favicon.svg"
   inkscape:version="1.0.2-2 (e86c870879, 2021-01-15)">
  <defs
     id="defs20" />
  <sodipodi:namedview
     pagecolor="#ffffff"
     bordercolor="#666666"
     borderopacity="1"
     objecttolerance="10"
     gridtolerance="10"
     guidetolerance="10"
     inkscape:pageopacity="0"
     inkscape:pageshadow="2"
     inkscape:window-width="2560"
     inkscape:window-height="1411"
     id="namedview18"
     showgrid="false"
     inkscape:zoom="2.6204545"
     inkscape:cx="47.990416"
     inkscape:cy="29.064953"
     inkscape:window-x="-9"
     inkscape:window-y="-9"
     inkscape:window-maximized="1"
     inkscape:current-layer="svg16" />
  <metadata
     id="metadata2">
Created by potrace 1.10, written by Peter Selinger 2001-2011
<rdf:RDF>
  <cc:Work
     rdf:about="">
    <dc:format>image/svg+xml</dc:format>
    <dc:type
       rdf:resource="http://purl.org/dc/dcmitype/StillImage" />
  </cc:Work>
</rdf:RDF>
</metadata>
  <g
     transform="translate(0.000000,102.000000) scale(0.050000,-0.050000)"
     fill="#c4b1e5"
     stroke="none"
     id="g14">
    <path
       d="M111 2021 c-34 -55 -21 -198 25 -259 68 -92 18 -75 -66 23 l-73 85 9 -84 c13 -110 80 -201 182 -247 45 -20 66 -37 47 -38 -49 -2 -44 -25 25 -135 56 -88 72 -132 109 -294 21 -94 59 -28 61 106 1 101 9 125 51 160 46 38 46 41 8 41 -64 1 -129 58 -129 113 0 59 50 84 103 51 130 -82 -36 161 -178 260 -25 17 -71 78 -103 136 -34 62 -63 96 -71 82z"
       id="path4" />
    <path
       d="M1373 1748 c-41 -28 -171 -87 -289 -131 -410 -154 -522 -224 -586 -366 -56 -123 -46 -134 59 -63 66 45 149 76 265 100 427 89 555 174 617 409 30 110 25 113 -66 51z"
       id="path6" />
    <path
       d="M1320 1415 c-27 -22 -104 -66 -170 -96 -66 -30 -138 -75 -160 -99 -22 -25 -85 -71 -140 -104 l-100 -59 176 12 c271 18 379 92 436 298 26 95 21 100 -42 48z"
       id="path8" />
    <path
       d="M810 1242 c-265 -66 -510 -284 -510 -453 l0 -53 56 59 c64 70 154 95 231 66 71 -27 86 -73 41 -124 -69 -75 148 -199 293 -167 l57 13 -89 85 c-113 108 -111 122 11 124 131 3 233 71 307 205 30 57 51 103 46 103 -5 0 -48 -18 -96 -40 -63 -28 -131 -39 -247 -40 -88 0 -207 -13 -265 -28 -149 -40 -130 -16 70 92 97 51 197 116 224 145 56 59 55 59 -129 13z"
       id="path10" />
    <path
       d="M431 821 c-27 -44 172 -762 223 -804 53 -44 23 170 -74 518 -80 285 -112 347 -149 286z"
       id="path12" />
  </g>
  <path
     style="fill:#19e6a9;fill-opacity:1;stroke:#ececec;stroke-width:0.0674603"
     d="m 25.783496,67.244149 c -0.521255,-0.457669 -0.806603,-1.239548 -1.428812,-3.915075 -1.405419,-6.043368 -2.432,-9.544915 -3.560034,-12.142857 -0.829212,-1.909732 -1.664867,-3.431507 -3.552766,-6.469787 -2.085042,-3.355548 -3.130526,-5.272005 -3.518048,-6.448864 -0.20875,-0.633947 -0.220242,-1.362192 -0.02574,-1.630884 0.23906,-0.330239 0.785075,-0.549071 1.6089,-0.644815 0.550697,-0.064 0.752848,-0.113905 0.806408,-0.199076 0.245031,-0.389644 -0.945963,-1.209702 -3.44411,-2.371436 C 12.009078,33.114326 11.134968,32.671014 10.726833,32.436217 5.1903116,29.251095 1.5865067,24.081065 0.57389074,17.870774 c -0.1165265,-0.714647 -0.74986641,-6.36037 -0.71758604,-6.39671 0.005744,-0.0065 1.2171652,1.394386 2.6920477,3.113006 1.4748824,1.718619 3.0407085,3.51498 3.4796134,3.991915 2.1417565,2.32733 4.1835822,4.004058 4.8759192,4.004058 0.718121,0 0.178323,-1.280564 -1.5924555,-3.777778 C 8.2256159,17.274012 7.664454,16.106109 7.1165892,14.237314 6.4240306,11.87496 6.1294438,9.5338143 6.1935359,6.9016081 6.2330694,5.2780026 6.3275248,4.4733702 6.6102482,3.3517834 6.8678151,2.3299937 7.3354925,1.2668314 7.5864948,1.1324988 7.8333915,1.0003637 8.2175915,1.2330498 8.8532316,1.899683 c 0.9365132,0.9821765 1.8000274,2.2941589 3.6950294,5.6140502 0.70415,1.2336138 2.189967,3.4963258 3.025593,4.6075948 1.497227,1.99111 2.464132,3.008206 3.787899,3.98453 0.519445,0.383108 1.263195,0.955535 1.652778,1.272062 4.762929,3.869754 10.434813,10.490058 12.348595,14.413456 0.593738,1.217207 0.731743,1.876673 0.463969,2.217093 -0.308594,0.392314 -1.217023,0.140384 -2.667115,-0.739657 -1.294891,-0.785852 -2.245627,-1.113058 -3.264497,-1.123512 -0.35248,-0.0036 -0.807837,0.03257 -1.011904,0.08042 -1.013187,0.237562 -1.918159,0.958984 -2.374678,1.893036 -0.399979,0.818368 -0.488701,1.245304 -0.490665,2.361111 -0.0015,0.839635 0.02064,1.049833 0.156171,1.484127 0.884272,2.833574 3.783735,5.309436 6.992902,5.971264 0.296825,0.06121 1.073303,0.13529 1.725507,0.164612 0.664383,0.02987 1.250251,0.08779 1.332341,0.131727 0.390959,0.209236 0.0228,0.681509 -1.603631,2.057122 -1.462066,1.236596 -1.772039,1.534677 -2.235496,2.14973 -0.758491,1.006593 -1.154701,1.992077 -1.403076,3.489831 -0.201971,1.217928 -0.269261,2.209882 -0.3445,5.078432 -0.06739,2.569481 -0.123388,3.457844 -0.311328,4.939425 -0.357156,2.815547 -1.063219,4.915956 -1.804459,5.367937 -0.294812,0.179765 -0.474107,0.162803 -0.739171,-0.06993 z"
     id="path50"
     transform="scale(0.74999999)" />
  <path
     style="fill:#19e6a9;fill-opacity:1;stroke:#ececec;stroke-width:0.0674603"
     d="m 31.262653,59.599747 c -0.587744,-0.451256 -0.1925,-2.068823 1.388214,-5.681387 1.764684,-4.033005 3.190564,-6.238793 5.561365,-8.603235 5.175683,-5.161803 13.362419,-9.266439 34.105871,-17.099878 5.864641,-2.21469 11.080468,-4.452562 15.347222,-6.584787 2.391569,-1.195139 3.024691,-1.560817 5.221322,-3.015732 1.648835,-1.092088 2.85034,-1.740073 3.350563,-1.806996 0.265491,-0.03552 0.335317,-0.01771 0.505953,0.129024 0.186928,0.160745 0.199229,0.203441 0.220818,0.766393 0.01793,0.467612 -0.02189,0.814361 -0.184691,1.608068 -0.416999,2.033028 -1.411486,5.592434 -2.068719,7.40423 -2.70424,7.454778 -6.853334,12.023484 -14.22977,15.668871 -5.659565,2.796921 -12.889427,4.988169 -24.926587,7.554825 -6.568234,1.40053 -10.485579,2.618044 -14.200397,4.413498 -1.618237,0.782129 -2.52001,1.30157 -4.452381,2.56467 -2.123103,1.387771 -2.718169,1.750407 -3.591274,2.188537 -1.072022,0.537949 -1.770643,0.706469 -2.047509,0.493899 z"
     id="path52"
     transform="scale(0.74999999)" />
  <path
     style="fill:#19e6a9;fill-opacity:1;stroke:#ececec;stroke-width:0.0674603"
     d="m 50.261952,65.430262 c 0.03525,-0.03165 1.551587,-0.932772 3.369643,-2.002498 4.523684,-2.661691 6.196438,-3.736278 8.70207,-5.590263 1.423189,-1.053055 2.47583,-1.940687 3.610509,-3.044535 1.032515,-1.004459 1.696121,-1.529267 3.175851,-2.511599 2.297816,-1.525424 4.842293,-2.920712 8.02149,-4.398657 1.394584,-0.648315 4.192633,-2.07327 5.430556,-2.765606 2.808912,-1.570946 4.43107,-2.616201 5.9866,-3.85753 2.054456,-1.639477 2.775815,-2.007972 3.065448,-1.565936 0.295949,0.451675 -0.02109,2.241873 -1.001795,5.656783 -1.249394,4.350503 -2.867111,7.729918 -4.957217,10.355637 -0.635687,0.79859 -2.151502,2.305825 -2.965396,2.948611 -3.963657,3.130368 -9.298375,4.885205 -17.478453,5.749477 -1.539166,0.162621 -2.511723,0.235607 -9.482494,0.711612 -6.261524,0.427572 -5.557729,0.387157 -5.476812,0.314504 z"
     id="path54"
     transform="scale(0.74999999)" />
  <path
     style="fill:#19e6a9;fill-opacity:1;stroke:#ececec;stroke-width:0.0674603"
     d="m 56.794795,98.272307 c -4.286808,-0.290941 -9.134349,-2.025022 -12.3935,-4.433451 -0.913412,-0.674989 -2.22248,-1.996501 -2.630134,-2.655134 -0.510559,-0.824897 -0.667075,-1.275368 -0.705386,-2.030186 -0.02854,-0.562361 -0.01168,-0.714628 0.120704,-1.089612 0.08464,-0.239744 0.29352,-0.618312 0.464183,-0.841262 0.170664,-0.22295 0.492441,-0.643443 0.71506,-0.934429 2.216546,-2.897249 1.412134,-5.536342 -2.219291,-7.280988 -4.60319,-2.211512 -10.081204,-1.388246 -14.544598,2.185844 -0.707677,0.566676 -1.527173,1.384792 -3.946429,3.939787 l -1.619048,1.709889 -0.01974,-1.553472 c -0.03534,-2.78101 0.145618,-4.304387 0.727266,-6.122482 0.964823,-3.015809 2.786113,-6.061639 5.557507,-9.294086 0.78265,-0.912853 3.292889,-3.423676 4.292506,-4.293506 6.296285,-5.478793 14.048851,-9.710559 21.857143,-11.930798 1.055847,-0.300223 6.400549,-1.625589 8.176831,-2.02767 2.329362,-0.527276 3.616217,-0.689207 3.970461,-0.499621 0.338644,0.181237 0.03244,0.694204 -1.252451,2.098171 -1.407576,1.538021 -2.579006,2.48712 -5.396825,4.372536 -3.359958,2.248164 -5.594246,3.562691 -11.677038,6.870096 -6.654943,3.618502 -9.809073,5.645416 -9.809073,6.303528 0,0.249984 0.168356,0.321634 0.754494,0.321103 0.837451,-7.63e-4 1.887187,-0.2075 5.088958,-1.002243 4.985503,-1.237502 10.644162,-1.88489 17.767659,-2.032738 7.203517,-0.149508 10.23506,-0.478537 13.785819,-1.496247 1.341185,-0.384407 2.272144,-0.747564 4.900689,-1.911711 2.451212,-1.085608 4.485723,-1.921693 4.676203,-1.921693 0.145245,0 0.142833,0.05204 -0.02559,0.551987 -0.347795,1.032417 -2.344898,5.14496 -3.338617,6.875065 -1.416791,2.466691 -2.923262,4.486907 -4.717443,6.32621 -3.676198,3.768654 -7.829148,5.858873 -12.953683,6.519711 -0.445238,0.05742 -1.629167,0.132991 -2.630953,0.167945 -2.253282,0.07862 -2.848925,0.117557 -3.730757,0.243887 -2.122929,0.304126 -2.704775,0.947771 -2.04929,2.266947 0.643499,1.295055 2.088251,2.814082 8.32653,8.754597 1.539036,1.465575 2.792384,2.672148 2.785218,2.681273 -0.05303,0.06752 -4.326026,0.981918 -4.94951,1.059166 -1.055093,0.130722 -2.363389,0.171081 -3.357879,0.103587 z"
     id="path56"
     transform="scale(0.74999999)" />
  <path
     style="fill:#19e6a9;fill-opacity:1;stroke:#ececec;stroke-width:0.0674603"
     d="m 44.052229,135.11555 c -0.328344,-0.14998 -0.727563,-0.5748 -1.068638,-1.13718 -3.569631,-5.8858 -13.656109,-41.623506 -14.342434,-50.817125 -0.106281,-1.423686 -0.02616,-1.754856 0.626085,-2.587835 1.577568,-2.014705 3.247453,0.247549 5.772426,7.820116 2.662244,7.984253 6.359011,21.672744 8.274892,30.640504 2.019478,9.45267 2.518023,15.36846 1.354923,16.07767 -0.259017,0.15794 -0.279639,0.15807 -0.617254,0.004 z"
     id="path58"
     transform="scale(0.74999999)" />
</svg>
