<?xml version="1.0" standalone="no"?>
<!DOCTYPE svg PUBLIC "-//W3C//DTD SVG 20010904//EN"
 "http://www.w3.org/TR/2001/REC-SVG-20010904/DTD/svg10.dtd">
<svg version="1.0" xmlns="http://www.w3.org/2000/svg"
 width="66.000000pt" height="66.000000pt" viewBox="0 0 66.000000 66.000000"
 preserveAspectRatio="xMidYMid meet">
<metadata>
Created by potrace 1.10, written by Peter Selinger 2001-2011
</metadata>
<g transform="translate(0.000000,66.000000) scale(0.050000,-0.050000)"
fill="#0ee6b7" stroke="none">
<path d="M335 975 c-334 -341 -320 -313 -220 -414 41 -42 173 -176 294 -299
120 -122 234 -222 253 -222 32 0 638 591 638 622 0 29 -603 608 -636 611 -20
1 -158 -124 -329 -298z m625 -34 l290 -278 -250 -252 c-238 -240 -251 -250
-277 -212 -34 50 -61 52 -94 6 -22 -30 -20 -43 17 -85 23 -27 -92 83 -257 245
l-299 295 280 280 c154 154 284 280 290 279 5 0 141 -125 300 -278z"/>
<path d="M380 929 l-270 -266 190 -184 c105 -101 184 -177 176 -169 -7 8 13
40 45 71 132 129 35 284 -128 206 -143 -68 -256 26 -164 135 42 50 51 54 51
24 0 -21 -11 -49 -24 -62 -39 -39 9 -73 62 -45 39 21 40 26 12 53 -16 17 -30
44 -30 59 0 44 54 34 89 -16 25 -36 38 -40 66 -23 50 32 37 56 -35 68 -71 12
-74 53 -3 44 43 -6 46 -1 34 48 -9 36 -4 60 13 71 44 28 56 19 56 -39 0 -190
187 -190 324 -1 l34 47 1 -65 c1 -56 8 -65 52 -65 32 0 46 -8 38 -22 -8 -12
-35 -18 -60 -13 -61 12 -80 -37 -26 -66 34 -19 46 -15 70 19 28 41 87 58 87
26 0 -8 -14 -35 -30 -59 -29 -40 -28 -45 12 -66 55 -30 97 5 59 49 -39 47 -5
76 38 33 104 -104 -42 -206 -186 -131 -149 78 -235 -80 -117 -212 l56 -63 179
174 178 174 -279 268 c-154 147 -284 267 -290 266 -5 -1 -131 -121 -280 -268z
m233 89 c-7 -35 -13 -75 -13 -90 0 -16 -9 -28 -20 -28 -22 0 -27 98 -8 148 22
58 53 34 41 -30z m87 2 c0 -11 10 -20 21 -20 12 0 16 9 9 20 -7 11 -3 20 8 20
26 0 51 -90 33 -119 -21 -33 -51 -25 -52 14 -1 21 -15 7 -35 -35 -23 -47 -50
-72 -84 -77 l-50 -7 49 53 c28 29 52 77 54 107 5 68 3 64 27 64 11 0 20 -9 20
-20z"/>
</g>
</svg>
