<?xml version="1.0" standalone="no"?>
<!DOCTYPE svg PUBLIC "-//W3C//DTD SVG 20010904//EN"
 "http://www.w3.org/TR/2001/REC-SVG-20010904/DTD/svg10.dtd">
<svg version="1.0" xmlns="http://www.w3.org/2000/svg"
 width="66.000000pt" height="66.000000pt" viewBox="0 0 66.000000 66.000000"
 preserveAspectRatio="xMidYMid meet">
<metadata>
Created by potrace 1.10, written by Peter Selinger 2001-2011
</metadata>
<g transform="translate(0.000000,66.000000) scale(0.050000,-0.050000)"
fill="#0ee6b7" stroke="none">
<path d="M569 1245 c-38 -41 -69 -90 -69 -109 0 -19 -44 -76 -98 -126 -54 -50
-109 -120 -123 -156 -14 -35 -42 -88 -62 -117 -47 -68 -47 -108 1 -141 21 -15
51 -59 67 -98 16 -39 67 -102 112 -141 46 -39 83 -76 83 -82 0 -7 27 -39 60
-72 33 -33 60 -81 60 -106 1 -132 113 -132 159 0 21 57 80 136 176 232 88 89
145 163 145 189 0 23 18 53 40 67 49 30 50 67 7 157 -17 37 -51 107 -74 155
-23 48 -76 111 -117 140 -45 31 -75 70 -76 94 0 50 -138 189 -187 189 -19 0
-66 -34 -104 -75z m190 -140 c-44 -31 -35 -65 18 -65 87 0 346 -344 296 -394
-24 -24 -113 24 -130 71 -14 37 -20 42 -21 17 -4 -90 -193 49 -213 156 -13 68
-102 120 -152 88 -20 -13 -15 -17 19 -18 97 0 77 -139 -31 -212 -38 -26 -82
-40 -105 -34 -28 7 -40 1 -40 -21 0 -33 -84 -66 -117 -45 -58 36 180 357 285
383 58 15 69 58 20 77 -27 10 -23 23 25 79 l57 68 65 -61 c62 -59 63 -62 24
-89z m-269 -465 c43 0 147 -97 155 -146 8 -46 -42 -154 -70 -154 -51 0 -145
74 -197 156 l-59 93 46 35 c25 20 57 31 72 26 14 -6 38 -10 53 -10z m500 -8
c55 -40 -9 -177 -114 -247 -84 -55 -126 -50 -158 22 -60 130 157 309 272 225z
m-222 -332 c38 0 38 -1 -2 -45 -23 -25 -55 -72 -73 -105 -18 -35 -32 -46 -32
-28 -1 18 -23 65 -50 105 -46 67 -47 73 -13 73 24 0 43 20 51 55 l14 54 33
-54 c18 -30 51 -55 72 -55z"/>
<path d="M887 855 c28 -56 45 -74 49 -51 7 35 -49 136 -76 136 -8 0 4 -38 27
-85z"/>
</g>
</svg>
