<?xml version="1.0" standalone="no"?>
<!DOCTYPE svg PUBLIC "-//W3C//DTD SVG 20010904//EN"
 "http://www.w3.org/TR/2001/REC-SVG-20010904/DTD/svg10.dtd">
<svg version="1.0" xmlns="http://www.w3.org/2000/svg"
 width="66.000000pt" height="66.000000pt" viewBox="0 0 66.000000 66.000000"
 preserveAspectRatio="xMidYMid meet">
<metadata>
Created by potrace 1.10, written by Peter Selinger 2001-2011
</metadata>
<g transform="translate(0.000000,66.000000) scale(0.100000,-0.100000)"
fill="#0ee6b7" stroke="none">
<path d="M233 652 c-40 -12 -63 -40 -63 -74 0 -22 -7 -37 -19 -45 -51 -32 -77
-158 -45 -218 9 -16 17 -47 19 -67 3 -47 57 -117 96 -125 26 -5 27 -7 15 -27
-22 -35 -27 -72 -12 -86 12 -9 33 -6 98 15 46 14 95 30 109 34 18 6 34 3 51
-7 39 -23 58 -10 58 41 0 25 -7 61 -16 82 -21 52 -5 95 38 95 38 0 45 22 19
63 -13 21 -21 51 -21 76 0 23 -7 55 -15 71 -13 25 -13 33 -3 50 11 18 10 23
-6 36 -11 8 -28 14 -37 14 -10 0 -38 9 -64 20 -26 11 -62 20 -80 20 -19 0 -38
6 -42 14 -10 18 -51 27 -80 18z m31 -33 c-4 -8 1 -9 17 -5 23 7 23 7 5 -8 -16
-13 -22 -13 -28 -3 -6 9 -10 9 -18 -3 -11 -18 -13 -53 -2 -48 82 43 147 47
195 13 12 -8 34 -15 49 -15 30 0 38 -14 13 -24 -12 -4 -11 -12 10 -42 18 -26
25 -50 25 -83 0 -26 7 -56 15 -67 20 -27 19 -34 -8 -34 -17 0 -28 -11 -45 -45
l-22 -46 20 -39 c11 -22 20 -53 20 -70 l0 -32 -31 26 c-17 15 -44 33 -60 42
-29 14 -39 47 -19 59 6 3 10 15 10 27 0 11 9 31 20 45 30 38 24 47 -12 21 -34
-24 -77 -48 -85 -48 -3 0 -2 11 1 24 3 14 2 28 -4 31 -5 3 -10 1 -10 -4 0 -6
-8 -11 -19 -11 -21 0 -47 -25 -34 -33 5 -3 15 -2 23 4 23 14 30 11 30 -14 0
-12 9 -28 20 -35 11 -7 20 -20 20 -30 0 -9 16 -30 35 -45 41 -32 38 -47 -9
-47 -18 0 -55 -11 -82 -25 -27 -14 -52 -25 -55 -25 -9 0 15 68 29 82 9 9 12 9
12 1 0 -7 -4 -15 -10 -18 -5 -3 -10 -11 -10 -17 0 -6 11 -1 25 12 14 13 21 26
17 29 -5 3 -14 16 -21 28 -10 20 -15 21 -36 11 -22 -10 -29 -8 -51 13 -39 37
-55 71 -40 91 6 8 19 17 29 19 29 6 15 24 -18 24 -26 0 -31 5 -43 40 -18 55
-7 108 31 149 18 18 39 35 47 38 12 4 13 8 3 19 -20 20 -15 46 9 63 26 18 52
21 42 5z m126 -404 c0 -8 -7 -15 -15 -15 -8 0 -15 7 -15 15 0 8 7 15 15 15 8
0 15 -7 15 -15z"/>
<path d="M470 395 c0 -6 7 -21 16 -33 14 -21 14 -22 -10 -22 -14 0 -26 -4 -26
-10 0 -5 16 -10 35 -10 19 0 35 2 35 6 0 3 -11 22 -25 42 -14 20 -25 32 -25
27z"/>
<path d="M188 362 c20 -22 25 -21 16 2 -3 9 -12 16 -20 16 -11 0 -10 -4 4 -18z"/>
<path d="M230 326 c0 -3 14 -13 31 -21 29 -16 31 -15 27 2 -2 11 -14 19 -31
21 -15 2 -27 1 -27 -2z"/>
</g>
</svg>
