<?xml version="1.0" standalone="no"?>
<!DOCTYPE svg PUBLIC "-//W3C//DTD SVG 20010904//EN"
 "http://www.w3.org/TR/2001/REC-SVG-20010904/DTD/svg10.dtd">
<svg version="1.0" xmlns="http://www.w3.org/2000/svg"
 width="66.000000pt" height="66.000000pt" viewBox="0 0 66.000000 66.000000"
 preserveAspectRatio="xMidYMid meet">
<metadata>
Created by potrace 1.10, written by Peter Selinger 2001-2011
</metadata>
<g transform="translate(0.000000,66.000000) scale(0.100000,-0.100000)"
fill="#0ee6b7" stroke="none">
<path d="M240 599 c-63 -21 -129 -38 -146 -39 -59 0 -110 -80 -74 -116 18 -18
180 -344 180 -362 0 -23 43 -72 63 -72 22 0 80 21 97 36 16 13 118 54 136 54
6 0 21 -9 34 -20 28 -24 62 -26 96 -3 24 15 25 19 19 77 -4 34 -12 66 -17 73
-5 7 -7 16 -4 21 6 10 -58 147 -74 157 -5 3 -10 28 -10 54 0 45 -4 51 -64 114
-76 80 -76 80 -236 26z m216 -45 c50 -52 54 -60 54 -104 0 -30 6 -52 15 -60
32 -27 77 -133 89 -212 1 -10 5 -21 9 -24 20 -20 -11 -74 -42 -74 -8 0 -28 12
-43 27 l-29 28 -67 -24 c-37 -13 -79 -32 -94 -42 -15 -10 -42 -20 -60 -21 -29
-3 -35 1 -48 31 -29 66 -181 366 -191 375 -29 30 2 76 51 76 12 0 55 11 96 25
41 14 90 25 108 25 18 0 39 7 46 15 22 27 51 16 106 -41z"/>
<path d="M363 562 c10 -10 17 -26 17 -35 0 -14 -11 -17 -70 -17 -74 0 -87 9
-44 29 15 6 25 14 22 16 -2 3 -22 -4 -43 -15 -22 -11 -47 -20 -57 -20 -10 0
-18 -7 -18 -15 0 -18 118 -155 135 -155 14 0 2 24 -25 47 -37 31 -52 57 -44
77 9 23 163 23 165 1 1 -8 2 -20 3 -27 0 -6 7 -13 14 -16 10 -3 12 5 6 34 -10
58 -43 114 -67 114 -6 0 -3 -8 6 -18z"/>
<path d="M456 489 c4 -7 7 -26 6 -41 -1 -15 3 -28 8 -28 16 0 8 73 -9 78 -9 3
-11 0 -5 -9z"/>
<path d="M265 454 c50 -26 103 -42 115 -34 7 5 -15 16 -53 29 -78 25 -104 27
-62 5z"/>
<path d="M160 432 c0 -4 10 -23 22 -42 12 -19 39 -69 61 -110 37 -73 67 -115
67 -94 0 9 -12 34 -83 169 -24 46 -67 95 -67 77z"/>
<path d="M383 395 c-35 -15 -63 -60 -63 -99 0 -66 55 -112 121 -103 37 5 42 2
88 -46 42 -44 51 -49 65 -38 22 19 21 22 -24 72 -37 41 -39 47 -34 90 7 56
-13 102 -56 124 -35 18 -55 18 -97 0z m94 -47 c25 -27 29 -44 20 -79 -6 -24
-42 -49 -71 -49 -27 0 -66 41 -66 69 0 68 74 105 117 59z m40 -135 c4 -10 23
-32 42 -50 20 -17 33 -34 29 -38 -3 -4 -24 12 -45 35 -46 51 -58 70 -43 70 6
0 14 -8 17 -17z"/>
<path d="M399 333 c-7 -44 -6 -63 2 -63 5 0 9 7 9 15 0 8 7 15 16 15 8 0 12 5
9 10 -3 6 -1 10 4 10 6 0 11 5 11 10 0 11 -49 14 -51 3z"/>
<path d="M375 160 c-3 -5 -25 -10 -49 -10 -47 0 -66 -13 -66 -46 0 -31 18 -40
22 -12 2 18 11 24 43 29 49 7 108 33 98 42 -10 10 -41 8 -48 -3z"/>
</g>
</svg>
