<?xml version="1.0" standalone="no"?>
<!DOCTYPE svg PUBLIC "-//W3C//DTD SVG 20010904//EN"
 "http://www.w3.org/TR/2001/REC-SVG-20010904/DTD/svg10.dtd">
<svg version="1.0" xmlns="http://www.w3.org/2000/svg"
 width="66.000000pt" height="66.000000pt" viewBox="0 0 66.000000 66.000000"
 preserveAspectRatio="xMidYMid meet">
<metadata>
Created by potrace 1.10, written by Peter Selinger 2001-2011
</metadata>
<g transform="translate(0.000000,66.000000) scale(0.100000,-0.100000)"
fill="#0ee6b7" stroke="none">
<path d="M499 591 c-20 -27 -24 -28 -58 -19 -54 16 -287 3 -318 -17 l-25 -17
3 -161 c2 -150 1 -165 -19 -204 -12 -23 -22 -58 -22 -76 0 -47 27 -53 102 -22
l59 24 48 -26 c44 -25 51 -26 90 -15 26 8 65 35 105 73 84 78 101 124 93 253
l-5 91 32 20 c60 39 37 125 -34 125 -21 0 -36 -8 -51 -29z m81 -16 c16 -19 6
-45 -20 -52 -11 -3 -39 -29 -63 -58 -41 -50 -45 -52 -60 -37 -14 13 -19 14
-29 3 -11 -10 -10 -11 4 -6 11 4 23 -3 39 -24 13 -17 31 -31 41 -31 22 0 23
-18 3 -44 -14 -19 -15 -19 -38 7 -22 26 -47 36 -47 19 0 -5 -48 -58 -107 -117
-76 -76 -124 -115 -161 -132 -29 -14 -55 -23 -58 -20 -2 2 7 28 20 57 18 38
59 88 142 171 l117 117 -28 26 c-16 15 -26 28 -24 30 2 2 14 9 27 15 20 10 23
9 31 -12 5 -13 16 -27 25 -30 22 -9 104 58 121 99 15 37 43 45 65 19z m-152
-33 l43 -7 -34 -32 c-35 -33 -47 -33 -47 -2 0 42 -77 32 -101 -12 -9 -17 -7
-25 10 -43 l20 -21 -86 -88 c-47 -48 -89 -85 -92 -81 -3 3 -6 66 -6 139 l0
134 55 6 c30 3 64 7 75 9 37 6 119 5 163 -2z m102 -132 c0 -31 -13 -37 -40
-20 -12 7 -12 12 4 29 26 29 36 26 36 -9z m6 -87 c-11 -11 -17 4 -9 23 7 18 8
18 11 1 2 -10 1 -21 -2 -24z m-86 -28 c15 -18 42 -19 58 -3 21 21 23 2 3 -43
-20 -47 -83 -112 -143 -148 -34 -20 -39 -21 -65 -7 -63 34 -64 29 32 126 49
49 93 90 96 90 4 0 12 -7 19 -15z"/>
<path d="M228 502 c-16 -2 -28 -8 -28 -14 0 -6 11 -7 27 -3 47 11 47 23 1 17z"/>
<path d="M172 403 c0 -73 3 -89 9 -63 10 46 10 160 -1 160 -4 0 -8 -44 -8 -97z"/>
<path d="M446 241 c-9 -16 -31 -42 -50 -56 -19 -14 -37 -34 -41 -43 -4 -12 0
-11 18 6 13 12 27 19 32 15 4 -5 5 -2 1 5 -4 6 -2 12 3 12 13 0 66 78 58 86
-3 3 -13 -8 -21 -25z"/>
<path d="M308 133 c6 -2 18 -2 25 0 6 3 1 5 -13 5 -14 0 -19 -2 -12 -5z"/>
</g>
</svg>
